<svg id="visual" viewBox="0 0 540 960" width="540" height="960" xmlns="http://www.w3.org/2000/svg" xmlns:xlink="http://www.w3.org/1999/xlink" version="1.1"><rect x="0" y="0" width="540" height="960" fill="#fff"></rect><defs><linearGradient id="grad1_0" x1="0%" y1="0%" x2="100%" y2="100%"><stop offset="30%" stop-color="#ffffff" stop-opacity="1"></stop><stop offset="70%" stop-color="#ffffff" stop-opacity="1"></stop></linearGradient></defs><defs><linearGradient id="grad2_0" x1="0%" y1="0%" x2="100%" y2="100%"><stop offset="30%" stop-color="#ffffff" stop-opacity="1"></stop><stop offset="70%" stop-color="#ffffff" stop-opacity="1"></stop></linearGradient></defs><g transform="translate(540, 0)"><path d="M0 297C-42.1 295.7 -84.1 294.5 -113.7 274.4C-143.2 254.3 -160.3 215.5 -187.4 187.4C-214.5 159.3 -251.7 141.9 -271.6 112.5C-291.6 83.1 -294.3 41.5 -297 0L0 0Z" fill="#C41740"></path></g><g transform="translate(0, 960)"><path d="M0 -297C37.3 -288.3 74.5 -279.6 110.2 -266.1C145.9 -252.6 179.9 -234.3 208.6 -208.6C237.3 -182.9 260.6 -149.7 274.4 -113.7C288.2 -77.6 292.6 -38.8 297 0L0 0Z" fill="#C41740"></path></g></svg>