<svg id="visual" viewBox="0 0 960 540" width="960" height="540" xmlns="http://www.w3.org/2000/svg" xmlns:xlink="http://www.w3.org/1999/xlink" version="1.1"><rect x="0" y="0" width="960" height="540" fill="#fff"></rect><defs><linearGradient id="grad1_0" x1="43.8%" y1="0%" x2="100%" y2="100%"><stop offset="14.444444444444446%" stop-color="#ffffff" stop-opacity="1"></stop><stop offset="85.55555555555554%" stop-color="#ffffff" stop-opacity="1"></stop></linearGradient></defs><defs><linearGradient id="grad2_0" x1="0%" y1="0%" x2="56.3%" y2="100%"><stop offset="14.444444444444446%" stop-color="#ffffff" stop-opacity="1"></stop><stop offset="85.55555555555554%" stop-color="#ffffff" stop-opacity="1"></stop></linearGradient></defs><g transform="translate(960, 0)"><path d="M0 297C-36.7 290.4 -73.4 283.8 -112.5 271.6C-151.6 259.5 -193 241.7 -210 210C-227 178.3 -219.6 132.6 -230 95.3C-240.5 58 -268.7 29 -297 0L0 0Z" fill="#C41740"></path></g><g transform="translate(0, 540)"><path d="M0 -297C38.2 -292.6 76.5 -288.2 113.7 -274.4C150.8 -260.6 187 -237.3 205.8 -205.8C224.6 -174.2 226 -134.4 238.4 -98.7C250.7 -63.1 273.8 -31.5 297 0L0 0Z" fill="#C41740"></path></g></svg>